<?xml version="1.0" standalone="no"?><!DOCTYPE svg PUBLIC "-//W3C//DTD SVG 1.1//EN" "http://www.w3.org/Graphics/SVG/1.1/DTD/svg11.dtd"><svg t="1582648251349" class="icon" viewBox="0 0 1024 1024" version="1.1" xmlns="http://www.w3.org/2000/svg" p-id="19170" width="16" height="16" xmlns:xlink="http://www.w3.org/1999/xlink"><defs><style type="text/css"></style></defs><path d="M511.989 55.131c-26.684 0-50.956 15.233-62.319 39.103l-107.831 227.314-248.08 37.472c-25.498 3.803-46.677 21.547-54.892 45.652-8.186 24.235-2.008 50.921 16.02 69.117l181.786 184.346-42.168 255.627c-4.276 25.783 6.704 51.583 28.25 66.694 11.848 8.208 25.75 12.414 39.669 12.414 11.407 0 22.898-2.816 33.311-8.444l216.254-118.279 216.315 118.279c10.373 5.629 21.845 8.444 33.243 8.444 13.948 0 27.831-4.207 39.7-12.414 21.543-15.109 32.503-40.911 28.226-66.694l-42.171-255.627 181.832-184.347c18.007-18.201 24.186-44.883 15.995-69.117-8.227-24.103-29.414-41.849-54.927-45.657l-248.044-37.466-107.855-227.313c-11.299-23.87-35.61-39.103-62.315-39.103l0 0 0 0z" fill="#f4ea2a" p-id="19171"></path></svg>