<?xml version="1.0" standalone="no"?><!DOCTYPE svg PUBLIC "-//W3C//DTD SVG 1.1//EN" "http://www.w3.org/Graphics/SVG/1.1/DTD/svg11.dtd"><svg t="1578995124136" class="icon" viewBox="0 0 1024 1024" version="1.1" xmlns="http://www.w3.org/2000/svg" p-id="3498" xmlns:xlink="http://www.w3.org/1999/xlink" width="200" height="200"><defs><style type="text/css"></style></defs><path d="M917.333333 533.333333c-12.8 0-21.333333 8.533333-21.333333 21.333334v277.333333c0 23.466667-19.2 42.666667-42.666667 42.666667H170.666667c-23.466667 0-42.666667-19.2-42.666667-42.666667V170.666667c0-23.466667 19.2-42.666667 42.666667-42.666667h298.666666c12.8 0 21.333333-8.533333 21.333334-21.333333s-8.533333-21.333333-21.333334-21.333334H170.666667C123.733333 85.333333 85.333333 123.733333 85.333333 170.666667v661.333333c0 46.933333 38.4 85.333333 85.333334 85.333333h682.666666c46.933333 0 85.333333-38.4 85.333334-85.333333V554.666667c0-12.8-8.533333-21.333333-21.333334-21.333334z" p-id="3499"></path><path d="M853.333333 85.333333H640c-12.8 0-21.333333 8.533333-21.333333 21.333334s8.533333 21.333333 21.333333 21.333333h213.333333c4.266667 0 6.4 0 10.666667 2.133333L454.4 537.6c-8.533333 8.533333-8.533333 21.333333 0 29.866667 4.266667 4.266667 10.666667 6.4 14.933333 6.4s10.666667-2.133333 14.933334-6.4L893.866667 157.866667c2.133333 4.266667 2.133333 8.533333 2.133333 12.8v213.333333c0 12.8 8.533333 21.333333 21.333333 21.333333s21.333333-8.533333 21.333334-21.333333V170.666667c0-46.933333-38.4-85.333333-85.333334-85.333334z" p-id="3500"></path></svg>